<?xml version="1.0" encoding="UTF-8"?>
<svg id="Layer_2" xmlns="http://www.w3.org/2000/svg" viewBox="0 0 317.58 64.59">
  <g id="Layer_1-2" data-name="Layer_1">
    <g id="layer1">
      <path id="path33" d="M13.36,0v1.59h5.95v31c0,9.31-2.58,11.94-8.34,11.94-3.62,0-4.22-2.75-4.22-4.18,0-3.39-.19-5.46-3.27-5.46s-3.47,3.13-3.47,4.09c0,4.27,1.9,7.54,10.38,7.54,10.11,0,15.51-3.41,15.51-14.75V1.59h6.14s0-1.59,0-1.59H13.36M31.94,40.37c-.72.72-1.08,1.57-1.08,2.6s.36,1.87,1.08,2.55c.72.71,1.59,1.05,2.59,1.05s1.89-.34,2.63-1.05c.71-.68,1.07-1.52,1.07-2.55s-.36-1.9-1.07-2.6c-.71-.71-1.57-1.05-2.63-1.05s-1.9.33-2.6,1.05M73.42,40.37c-.71.72-1.05,1.57-1.05,2.6s.34,1.87,1.05,2.55c.76.71,1.59,1.05,2.6,1.05s1.91-.34,2.64-1.05c.72-.68,1.08-1.52,1.08-2.55s-.36-1.9-1.07-2.6c-.73-.71-1.6-1.05-2.65-1.05s-1.89.33-2.6,1.05M44.72,0v1.59h5.37v35.36c0,2.78-.17,3.5-.48,4.31-.33.9-1.08,1.61-2.19,2.07-.83.35-2.08.53-3.75.58v1.46h19.69v-1.45c-1.67-.04-2.94-.23-3.78-.53-1.17-.46-1.94-1.15-2.31-2.07-.33-.79-.49-1.5-.49-2.89v-12.11l4.87-.02c14.15,0,18.13-5.58,18.13-13.2S77.33,0,63,0h-18.29M56.77,1.8l3.38-.04c10.91,0,13.29,4.49,13.29,11.76s-4.29,11.05-12.94,11.05h-3.73V1.8M130.85.11c-.16.42-13.86,34.56-13.86,34.56l-.31.2-.33-.2S101.74.53,101.57.11h-12.88v1.46h5.59v35.11l-.12,3.2c-.09.84-.35,1.6-.77,2.2-.44.65-1.14,1.15-2.07,1.47-.61.2-1.51.33-2.64.36v1.46h12.79v-1.44c-1.09-.04-1.56-.15-2.2-.37-.94-.31-1.64-.77-2.11-1.44-.42-.62-.68-1.36-.78-2.24l-.14-3.2V6.35h.75s16.53,38.59,16.71,39.02h1.38l15.65-38.59h.39v31.27c0,1.34-.14,2.37-.39,3.17-.31.94-.98,1.64-1.94,2.12-.72.32-1.81.51-3.25.56v1.46h17.84v-1.46c-1.42-.07-2.53-.26-3.27-.6-1.04-.5-1.71-1.24-2-2.17-.26-.82-.38-1.81-.38-3.09V1.6l4.74-.05V.11h-11.61M146.6,29.48c0,16.15,12.57,17.22,15.28,17.22,5.37,0,15.56-3.35,15.56-17.53,0-11.03-6.51-17.03-15.34-17.03-9.52,0-15.5,6.31-15.5,17.34M153.71,29.66c0-8.86.55-15.51,8.26-15.51,8.33,0,8.37,6.88,8.37,14.95,0,11.6-1.98,15.6-8.37,15.6-7.16,0-8.26-3.58-8.26-15.04M193.31,19.43l-.45-.02s-.82-4.98-1.11-6.46c-2.22,0-11.02-.02-11.02-.02v1.69h5.96s-.03,5.06-.03,6.89v15.51c0,2.22-.25,3.77-.72,4.71-.61,1.11-1.98,1.66-4.24,1.66h-.96v1.98h18.47v-1.98h-1c-2.42,0-3.47-.53-4.12-1.58-.59-.93-.85-2.49-.85-4.79v-11.63c0-3.92,2.95-8.39,6.49-8.39s3.61,5.7,7.81,3.41c2.28-1.25,1.89-7.78-5.18-7.78-5.7,0-7.47,3.37-9.04,6.79M250.98,14.64c-2.11,1.61-2.93,3.09-2.93,5.21,0,.99.27,1.68.82,2.15.56.5,1.21.72,2.01.72,1.84,0,2.87-.93,3.25-3.35.28-1.79.67-2.81,1.55-3.75.94-.99,2.42-1.48,4.41-1.48,2.32,0,3.96.62,4.88,1.87.84,1.17,1.29,2.77,1.29,4.74v5.44c-5.92.53-19.89,1.66-19.27,12.3.23,4.16,3.91,7.82,8.65,7.82,5.25,0,8.57-2.99,10.82-5.38.36,2.27,2.46,4.97,6.29,4.97,4.3,0,6.87-2.11,7.17-7.38h-1.11c-.29,2.29-1.71,3.53-2.87,3.53-1.98,0-2.61-1.1-2.75-2.93l-.12-4.15v-13.59c0-2.93-.47-4.9-2.2-6.63-1.7-1.73-5-2.61-9.76-2.61s-7.97.84-10.12,2.5M253.45,37.24c0-6.04,8.27-9.06,12.81-9.06v10.44l-.11.26-.14.13c-3.17,2.87-5.58,3.89-7.35,3.89-4.53,0-5.21-3.77-5.21-5.66M292.92,18.81l-.59-.02-1.16-5.89-10.04-.02v1.69c1.89.08,5.03.11,5.03.11v22.3c0,1.73-.13,2.98-.39,3.81-.27.99-.91,1.68-1.86,2.07-.61.26-1.56.41-2.78.46v2.04h15.96v-2.06c-1.61-.13-2.69-.56-3.27-1.38-.62-.88-.91-2.38-.91-4.59v-8.57c0-3.58-.02-7.04,1.2-9.19,1.32-2.33,3.73-3.62,6.44-3.62,2.43,0,3.71.78,4.51,2.32.65,1.25,1.08,4.99,1.08,7.56l-.08,10.62c0,1.77.22,3.08.08,3.91-.18.98-.62,1.74-1.39,2.25-.56.38-1.44.58-2.56.67v2.07h15.39v-2.04c-1.95-.13-3.22-.6-3.78-1.51-.63-.93-1.15-2.49-1.15-4.82l.09-14.7c0-2.12-.29-3.94-1.08-5.43-.81-1.45-1.94-2.55-3.35-3.28-1.43-.72-3.07-1.07-4.88-1.07-6.49,0-9.1,3.96-10.52,6.29M241.52,10.83c-.95.3-1.58,1.15-1.92,2.58-.25,1.32-.75,2.08-1.42,2.3-.67.2-1.41.14-2.3-.16-1.65-1.54-4.83-3.41-10.41-3.41-8.99,0-12.96,6.41-12.96,12.25,0,6.84,2.63,10.15,8.41,11.37.35.07.35.46.05.53-4.94,1-9.31,2.44-9.31,7.13,0,2.83,1.62,4.38,3.7,5.22,2.29.93,5.52,1.41,9.56,1.49,3.54.04,6.04.16,7.68.36,1.77.2,3.16.71,4.2,1.46,1.06.82,1.62,2.03,1.62,3.62,0,2.17-1.16,3.92-3.47,5.21-2.15,1.2-5.1,1.83-8.76,1.83-3.14,0-5.71-.34-8.03-1.79-1.72-1.06-2.05-3.15-1.69-4.66.32-1.52-.22-3.13-1.99-3.43-.97-.16-2.19.37-2.76,1.25-.53.82-.72,1.8-.72,2.96,0,3.86,2.98,5.67,5.26,6.33,3.47,1.06,5.78,1.31,8.97,1.31,4.23,0,7.67-.65,10.13-1.89,2.46-1.24,4.17-2.76,5.09-4.51.96-1.76,1.43-3.55,1.43-5.28,0-2.33-.51-4.23-1.51-5.63-3.21-4.42-7.78-3.85-18.04-4.34-4.94,0-5.89-.89-5.89-2.41,0-2.22,1.83-3.1,8.97-4.2,7.03-1.09,13.59-3.68,13.59-12.26,0-2.47-.58-4.59-1.28-6.07,1.45.32,2.81.32,4.05-.09,1.42-.44,2.34-1.15,2.87-2.14.54-1,.65-1.94.36-2.86-.47-1.5-1.28-2.25-2.44-2.25-.32,0-.68.06-1.06.18M219.03,24.39c0-6.03,2.1-10.52,6.61-10.52,5.24,0,6.77,4.09,6.77,10.39,0,9.02-2.84,10.2-6.77,10.2-4.2,0-6.61-1.53-6.61-10.07"/>
    </g>
  </g>
</svg>